<?xml version="1.0" standalone="no"?>
<!DOCTYPE svg PUBLIC "-//W3C//DTD SVG 20010904//EN"
 "http://www.w3.org/TR/2001/REC-SVG-20010904/DTD/svg10.dtd">
<svg version="1.0" xmlns="http://www.w3.org/2000/svg"
 width="490.000000pt" height="490.000000pt" viewBox="0 0 490.000000 490.000000"
 preserveAspectRatio="xMidYMid meet">
<metadata>
Created by potrace 1.14, written by Peter Selinger 2001-2017
</metadata>
<g transform="translate(0.000000,490.000000) scale(0.100000,-0.100000)"
fill="#000000" stroke="none">
<path d="M2820 4843 c-26 -33 -102 -97 -80 -68 8 11 23 31 35 44 l20 23 -25
-6 c-39 -11 -115 -99 -166 -192 -44 -80 -48 -85 -73 -79 -184 47 -229 39 -314
-55 -64 -71 -91 -129 -77 -166 15 -38 45 -71 100 -106 38 -24 45 -33 46 -66 2
-20 -2 -47 -8 -59 -8 -17 -7 -28 5 -46 12 -19 13 -33 5 -78 -8 -45 -19 -63
-62 -109 -28 -30 -65 -72 -82 -94 l-30 -38 -84 30 c-47 17 -119 45 -160 63
-67 29 -85 33 -174 33 -70 1 -101 -3 -103 -11 -3 -7 -20 -15 -39 -19 -23 -4
-34 -12 -34 -24 0 -9 -9 -25 -20 -35 -27 -24 -25 -40 8 -63 l27 -21 -18 -31
c-11 -17 -17 -33 -15 -35 11 -11 170 -85 183 -85 9 0 29 -6 44 -14 15 -8 48
-17 72 -21 58 -7 203 -25 209 -25 2 0 -19 -22 -48 -50 -29 -27 -52 -56 -52
-64 0 -8 13 -28 29 -45 l29 -31 -57 -55 c-150 -143 -161 -313 -28 -402 27 -18
65 -37 85 -43 66 -18 69 -23 37 -72 -39 -59 -70 -90 -137 -132 -71 -45 -276
-146 -296 -146 -17 0 -178 -90 -243 -137 -26 -18 -53 -33 -62 -33 -23 0 -88
-29 -135 -62 -45 -31 -194 -199 -252 -284 -19 -27 -39 -53 -46 -59 -15 -14
-135 -216 -171 -289 l-28 -58 -185 -91 c-198 -97 -383 -197 -377 -203 2 -2
100 44 218 104 385 193 457 224 604 257 121 27 203 33 210 17 9 -25 5 -27 -66
-29 -76 -2 -242 -45 -270 -69 -8 -8 -27 -14 -42 -14 -22 0 -25 -4 -24 -26 1
-15 -4 -29 -11 -31 -7 -3 -10 1 -6 11 7 19 -22 34 -37 19 -7 -7 -1 -16 15 -27
25 -15 28 -15 64 3 63 32 273 99 332 106 54 7 56 6 68 -20 16 -34 17 -33 -26
-33 -20 -1 -64 -8 -97 -17 -110 -29 -133 -64 -65 -97 65 -33 151 -19 224 35
30 22 32 22 64 6 l33 -17 -102 -54 c-57 -29 -105 -52 -108 -51 -3 0 -62 4
-131 8 l-125 6 28 -25 c25 -23 36 -26 108 -26 43 0 79 -4 79 -8 0 -5 -8 -16
-19 -26 -16 -15 -61 -16 -486 -16 -316 1 -471 -2 -478 -9 -8 -8 0 -11 28 -11
l38 0 -44 -32 c-33 -25 -40 -33 -26 -36 22 -5 22 -11 -4 -38 l-22 -23 43 -17
43 -17 -33 -27 -34 -27 23 -12 c22 -12 22 -13 5 -32 -14 -16 -15 -22 -5 -28
10 -6 10 -13 2 -30 -33 -64 -32 -61 -10 -61 22 0 22 0 3 -21 -18 -20 -14 -29
21 -42 6 -3 0 -15 -13 -29 -12 -13 -19 -27 -16 -31 4 -4 1 -13 -6 -22 -9 -11
-10 -18 -1 -29 6 -8 10 -20 9 -27 -2 -12 25 -13 149 -10 198 5 603 -9 603 -20
0 -5 -10 -9 -21 -9 -18 0 -19 -2 -9 -15 10 -12 10 -15 -3 -15 -22 0 -30 -16
-18 -38 8 -16 6 -21 -15 -31 -26 -12 -26 -14 8 -63 23 -34 23 -48 -2 -48 -24
0 -26 -17 -4 -41 15 -16 14 -19 -11 -31 l-26 -14 43 -54 c24 -29 57 -70 73
-90 42 -51 134 -134 141 -127 4 3 -22 34 -57 69 -64 63 -169 187 -169 200 0 4
9 10 20 13 19 6 19 8 5 28 -21 30 -19 37 10 37 33 0 31 17 -5 60 l-29 35 27
21 c22 18 24 24 14 37 -10 12 -9 15 8 20 12 3 18 11 15 20 -5 11 5 16 40 20
62 9 163 -3 169 -19 3 -7 23 -18 46 -24 49 -13 242 -137 271 -174 23 -30 70
-55 144 -80 51 -16 212 -130 312 -220 29 -26 59 -46 67 -44 16 3 -100 109
-211 192 l-73 54 32 6 c18 4 52 16 76 27 l43 21 48 -38 c27 -22 79 -64 117
-95 91 -75 142 -103 159 -89 7 6 26 10 42 8 21 -2 27 1 24 12 -7 31 -6 43 7
47 7 3 10 -1 6 -10 -7 -19 11 -30 36 -22 19 6 18 8 -10 32 -28 23 -40 46 -22
41 4 -1 17 3 30 10 23 13 30 4 11 -15 -12 -12 -4 -33 13 -33 5 0 8 7 4 15 -3
8 -1 15 5 15 6 0 13 -9 16 -20 5 -18 14 -15 122 40 128 65 246 114 363 149
l76 24 47 -28 c26 -15 43 -30 38 -34 -4 -4 -33 -18 -63 -30 -152 -62 -433
-198 -520 -252 l-45 -29 240 0 241 0 74 76 c41 41 84 80 95 86 11 5 0 -10 -25
-35 -25 -24 -63 -63 -85 -85 l-39 -42 298 0 298 0 -7 39 c-7 41 12 99 43 135
41 45 151 63 210 32 38 -19 72 -62 79 -98 3 -16 11 -28 17 -28 14 0 -15 -20
-30 -20 -7 0 -15 11 -18 24 -3 13 -20 37 -37 54 -80 78 -209 31 -209 -77 0
-42 9 -61 30 -61 16 0 17 4 8 28 -6 16 -8 41 -4 56 7 29 58 66 91 66 31 0 77
-35 91 -69 12 -28 11 -32 -6 -41 -26 -14 -30 -13 -30 8 0 24 -31 52 -58 52
-43 0 -68 -54 -37 -80 17 -14 36 -5 29 15 -8 20 25 32 37 14 13 -22 11 -29
-13 -39 -21 -8 -21 -9 8 -9 16 -1 34 3 40 7 5 5 34 16 64 25 30 9 99 30 152
47 53 16 144 41 202 56 l104 26 94 -22 c51 -12 155 -39 230 -60 188 -53 262
-67 406 -75 l122 -7 0 1149 0 1149 -67 31 c-109 50 -263 113 -278 113 -24 0
-176 70 -269 123 -50 29 -104 59 -121 66 -54 23 -264 151 -277 169 -7 9 -37
37 -67 62 -30 24 -78 77 -107 116 -45 60 -61 74 -100 88 -26 9 -58 16 -70 16
-12 0 -24 7 -28 15 -3 8 -15 15 -26 15 -17 0 -20 6 -20 42 0 23 10 76 21 117
33 115 24 187 -39 333 -28 65 -54 133 -57 151 l-7 34 44 0 c25 0 50 3 56 7 7
4 12 33 12 72 0 70 7 89 52 144 20 24 28 46 28 72 0 21 9 52 20 70 11 18 20
41 20 51 0 9 5 17 10 17 6 0 10 16 10 35 0 19 -4 35 -8 35 -4 0 -14 16 -21 35
-7 20 -44 72 -82 116 -39 45 -87 116 -109 159 l-39 77 -76 12 c-73 12 -75 13
-73 39 3 26 0 28 -77 45 -44 10 -125 34 -181 53 -55 19 -108 34 -116 34 -9 0
-26 -12 -38 -27z m106 -27 c27 -13 102 -40 168 -60 l118 -37 -4 -102 c-7 -155
-63 -294 -163 -402 l-46 -49 16 37 c9 21 13 42 10 47 -5 9 29 74 51 97 18 19
37 111 37 178 0 71 -11 166 -21 180 -4 6 -58 35 -120 65 -63 30 -116 58 -118
63 -10 14 23 7 72 -17z m-456 -256 c14 -4 37 -11 53 -14 24 -6 26 -9 16 -27
-12 -23 -4 -23 -171 8 -48 9 -85 20 -82 24 16 26 121 32 184 9z m397 -16 c28
-5 31 -11 47 -81 10 -41 16 -75 15 -77 -2 -1 -39 -10 -82 -20 -42 -10 -104
-31 -137 -48 -52 -26 -61 -34 -70 -69 -6 -21 -13 -39 -15 -39 -5 0 2 51 10 71
3 10 2 20 -4 24 -7 3 -12 -3 -13 -17 -2 -37 -3 -40 -36 -112 -27 -57 -30 -72
-20 -85 12 -14 11 -14 -4 -2 -16 12 -18 11 -18 -2 0 -9 -6 -14 -12 -12 -8 3
-25 -18 -43 -50 -16 -30 -33 -55 -38 -55 -4 0 -6 -4 -3 -9 4 -5 0 -12 -6 -15
-7 -3 1 -3 17 1 54 11 87 32 80 53 -3 10 -1 21 4 25 7 4 8 -1 4 -11 -4 -11 -2
-15 7 -12 7 2 15 14 17 27 2 12 -1 20 -5 17 -5 -3 -9 1 -9 9 0 10 4 12 12 5 7
-5 15 -7 19 -3 4 4 4 -1 0 -12 -6 -16 -2 -14 21 8 15 15 33 27 39 27 6 0 -16
-26 -48 -59 -48 -49 -55 -59 -40 -65 10 -4 21 -2 24 4 4 7 10 -7 14 -31 8 -52
-3 -67 -39 -51 -35 16 -77 15 -134 -4 -26 -8 -67 -14 -90 -12 l-42 3 83 120
c45 66 106 143 135 171 55 53 71 84 33 64 -11 -6 -20 -8 -20 -4 0 4 -14 -12
-30 -34 -17 -23 -34 -42 -40 -42 -5 0 2 11 15 25 27 26 32 53 13 60 -7 2 -39
6 -70 10 l-57 6 5 32 c14 87 38 158 57 172 30 21 93 20 102 -2 6 -17 7 -17 21
2 8 11 20 20 27 20 7 0 29 8 51 18 21 9 42 17 46 17 5 0 32 11 62 25 53 25 91
30 145 19z m63 -18 c0 -3 -4 -8 -10 -11 -5 -3 -10 -1 -10 4 0 6 5 11 10 11 6
0 10 -2 10 -4z m35 -16 c3 -6 -1 -7 -9 -4 -18 7 -21 14 -7 14 6 0 13 -4 16
-10z m32 -15 c0 -8 -4 -12 -9 -9 -4 3 -8 9 -8 15 0 5 4 9 8 9 5 0 9 -7 9 -15z
m48 -5 l27 -10 -26 -21 c-14 -11 -24 -25 -20 -30 3 -5 2 -9 -3 -8 -20 4 -27
-2 -13 -12 13 -9 12 -10 -2 -5 -10 3 -20 1 -23 -4 -9 -15 -22 -12 -22 5 0 8 3
13 6 10 2 -3 19 9 38 26 30 30 31 33 15 45 -21 16 -12 17 23 4z m30 -68 c-3
-4 -10 0 -15 8 -6 9 -5 17 3 22 13 8 24 -19 12 -30z m-25 -49 c-11 -17 -11
-17 -6 0 3 10 6 24 7 30 0 9 2 9 5 0 3 -7 0 -20 -6 -30z m179 -12 c-1 -13 -2
-13 -6 2 -2 9 -9 15 -14 11 -5 -3 -8 0 -7 8 2 7 -3 12 -10 10 -8 -1 -11 2 -7
8 9 15 45 -18 44 -39z m-209 19 c8 -5 11 -10 5 -10 -5 0 -17 5 -25 10 -8 5
-10 10 -5 10 6 0 17 -5 25 -10z m-271 -93 c-60 -38 -85 -49 -87 -39 -6 22 20
42 89 67 92 34 92 31 -2 -28z m426 44 c3 -5 -4 -16 -15 -24 -11 -7 -17 -17
-13 -20 3 -4 -1 -7 -10 -7 -15 0 -15 3 1 30 18 31 27 36 37 21z m34 -29 c-12
-36 -25 -42 -25 -13 0 11 3 18 7 15 4 -2 11 5 14 17 4 11 9 19 11 16 2 -2 -1
-18 -7 -35z m-269 14 c0 -2 -7 -7 -16 -10 -8 -3 -12 -2 -9 4 6 10 25 14 25 6z
m-43 -40 c-1 -19 -6 -32 -11 -28 -5 3 -7 -2 -3 -11 3 -9 1 -19 -5 -23 -7 -4
-8 -3 -4 4 4 7 3 12 -2 12 -15 0 -22 -13 -13 -24 7 -8 -5 -11 -37 -12 -51 -1
-80 -7 -111 -24 -17 -9 -20 -8 -14 7 5 12 2 15 -10 10 -23 -9 -47 2 -47 21 0
13 3 12 14 -3 13 -18 15 -18 52 14 40 36 148 91 176 91 14 0 17 -7 15 -34z
m113 17 c0 -10 -4 -14 -8 -8 -4 6 -11 13 -16 18 -5 4 -2 7 7 7 10 0 17 -8 17
-17z m180 -37 c0 -15 -55 -106 -58 -96 -3 7 1 16 8 20 7 4 9 13 5 20 -5 8 -4
11 2 7 10 -6 27 27 24 46 -1 4 4 7 9 7 6 0 10 -2 10 -4z m-207 -23 c-3 -7 -6
-13 -8 -13 -2 0 -5 6 -8 13 -3 8 1 14 8 14 7 0 11 -6 8 -14z m124 2 c0 -8 -4
-12 -9 -9 -5 3 -6 10 -3 15 9 13 12 11 12 -6z m-657 -25 c19 -5 21 -9 10 -14
-8 -3 -35 0 -60 8 l-45 14 35 0 c19 0 46 -3 60 -8z m616 -14 c-15 -13 -24 -26
-20 -28 5 -3 4 -4 -2 -2 -9 2 -9 -7 -1 -31 5 -19 13 -32 17 -30 11 7 0 -86
-15 -121 -12 -29 -12 -36 1 -49 20 -20 31 -19 38 3 4 13 4 12 3 -3 -2 -15 -9
-19 -27 -17 -14 1 -29 3 -35 3 -5 1 -73 -2 -150 -6 -129 -7 -144 -5 -195 14
-84 32 -84 32 -65 77 9 21 23 46 32 56 9 10 13 18 8 18 -4 0 -2 7 5 15 6 8 9
18 6 23 -3 6 2 16 12 23 15 13 16 12 3 -3 -9 -13 -10 -18 -2 -18 9 0 9 -5 1
-20 -15 -28 2 -25 30 5 29 31 32 31 46 1 11 -23 9 -24 -30 -31 -23 -4 -35 -9
-28 -12 7 -3 44 1 83 7 67 11 70 13 76 43 l6 31 31 -36 c27 -31 39 -37 86 -42
36 -3 48 -2 35 4 -11 5 -32 9 -47 9 -15 1 -30 7 -34 14 -4 6 -4 9 1 5 4 -4 39
22 77 57 37 36 72 65 76 65 4 -1 -6 -11 -22 -24z m-185 -43 l24 -28 -26 23
c-30 26 -83 29 -134 8 -19 -8 -35 -13 -35 -10 0 12 68 33 106 34 32 0 46 -6
65 -27z m-216 -2 c-9 -8 -36 -10 -30 -2 2 4 11 8 20 8 8 0 13 -3 10 -6z m305
1 c0 -5 -7 -17 -15 -28 -13 -16 -14 -16 -9 -1 4 11 1 17 -7 17 -11 0 -11 3 1
10 18 12 30 13 30 2z m-546 -14 c-3 -4 0 -8 5 -8 6 0 11 -5 11 -12 0 -7 -7 -5
-17 5 -14 12 -28 14 -63 7 -49 -9 -56 -7 -45 10 4 6 29 10 60 9 30 -1 52 -6
49 -11z m386 4 c0 -13 -12 -22 -22 -16 -10 6 -1 24 13 24 5 0 9 -4 9 -8z m742
-19 c22 -20 23 -42 2 -50 -8 -3 -13 -12 -10 -19 3 -7 -4 -23 -14 -36 l-19 -23
12 33 c16 44 0 68 -42 66 -39 -2 -39 1 2 26 39 24 45 25 69 3z m-451 -10 c13
-16 12 -17 -3 -4 -17 13 -22 21 -14 21 2 0 10 -8 17 -17z m-731 -23 c0 -5 -4
-10 -10 -10 -5 0 -10 5 -10 10 0 6 5 10 10 10 6 0 10 -4 10 -10z m-36 -41 c-8
-13 -24 -1 -24 18 0 13 3 13 15 3 8 -7 12 -16 9 -21z m1167 -6 c-9 -15 -10
-14 -7 7 6 35 7 37 12 23 3 -7 1 -20 -5 -30z m-65 8 c-10 -11 -15 -25 -11 -31
5 -8 11 -5 21 7 11 15 13 15 8 2 -3 -10 -1 -20 5 -24 6 -3 11 -1 11 4 0 6 5
11 11 11 8 0 8 -5 -1 -15 -7 -8 -16 -13 -20 -10 -4 2 -6 -17 -4 -43 2 -30 0
-42 -5 -33 -5 8 -7 21 -3 29 4 11 2 13 -9 7 -12 -8 -12 -6 -1 8 12 14 10 20
-11 41 l-24 24 21 21 c26 26 35 28 12 2z m-901 0 c3 -5 2 -12 -3 -15 -5 -3 -9
1 -9 9 0 17 3 19 12 6z m654 0 c10 -7 7 -9 -12 -8 -14 1 -23 5 -20 10 6 9 15
9 32 -2z m-859 -99 c-33 -49 -60 -91 -60 -94 0 -3 17 -13 39 -22 31 -14 38
-22 33 -39 -4 -16 -2 -19 12 -14 9 4 31 -2 49 -13 46 -28 75 -25 180 19 50 22
128 47 172 56 62 13 239 30 349 35 5 0 2 7 -5 17 -13 15 -12 15 9 4 13 -7 30
-10 37 -7 8 3 17 1 20 -4 4 -6 15 -10 26 -10 19 0 19 0 0 -19 -17 -17 -19 -36
-20 -183 -1 -113 3 -187 14 -237 19 -94 20 -92 -11 -81 -42 16 -127 11 -200
-11 -84 -26 -90 -29 -73 -41 10 -7 7 -7 -8 -3 -13 4 -38 -2 -63 -15 l-42 -21
-5 22 c-6 21 -7 21 -20 4 -7 -11 -13 -13 -13 -7 0 7 16 22 35 33 19 12 35 23
35 25 0 2 -12 10 -27 17 -25 14 -28 13 -64 -30 -24 -27 -36 -49 -32 -59 11
-29 -19 -62 -80 -89 -53 -24 -72 -27 -159 -27 -55 0 -118 3 -141 6 -23 3 -34
3 -25 -2 9 -4 26 -20 38 -35 33 -41 106 -74 209 -93 l90 -16 -51 -47 c-28 -25
-53 -44 -54 -41 -1 3 -13 -5 -26 -16 -32 -30 -132 -79 -202 -99 -94 -27 -306
-7 -393 38 -141 73 -112 280 54 396 30 20 34 21 62 6 38 -19 52 -19 26 1 -11
8 -44 38 -72 66 l-53 50 61 59 c53 51 66 59 100 59 30 0 37 -3 33 -15 -4 -8
-13 -15 -21 -15 -9 0 -13 -6 -10 -15 4 -8 1 -17 -5 -21 -7 -5 -8 -2 -4 7 4 8
0 5 -8 -5 -9 -11 -16 -22 -16 -25 1 -8 150 -82 170 -84 8 -2 22 -7 30 -12 13
-8 13 -7 1 8 -16 21 -12 21 23 4 14 -8 23 -17 19 -21 -3 -3 4 -5 18 -5 13 1
62 -8 109 -20 143 -35 228 -28 260 24 27 44 25 50 -7 27 -43 -29 -90 -42 -157
-42 -69 0 -139 20 -307 86 l-116 46 33 56 c19 31 34 60 34 64 0 5 28 6 63 3
l62 -5 -50 16 c-66 21 -75 30 -75 73 l0 36 197 -3 c223 -4 368 11 553 57 l111
27 6 -25 c9 -36 -15 -70 -72 -104 -67 -40 -183 -85 -250 -99 -50 -10 -76 -28
-41 -28 30 0 161 31 170 40 6 6 19 10 31 11 11 0 52 13 90 29 39 15 72 27 73
25 20 -19 -78 -107 -187 -168 l-42 -24 40 -32 c34 -27 43 -30 61 -21 22 12 23
47 1 42 -7 -1 -9 2 -6 9 5 8 12 7 22 -3 12 -13 19 -10 49 20 19 19 34 38 34
42 0 4 16 20 35 34 l35 27 31 -31 31 -31 -6 38 c-17 108 -18 170 -2 229 9 34
16 66 16 71 0 5 -33 -1 -72 -15 -85 -28 -72 -25 -219 -56 -182 -38 -319 -49
-522 -44 -100 3 -192 10 -205 15 l-23 9 40 54 c23 30 68 84 100 120 47 53 59
74 65 112 7 43 9 47 39 51 18 2 35 5 40 5 4 1 -20 -38 -53 -86z m887 66 c2
-17 0 -19 -7 -8 -5 8 -6 18 -4 22 8 12 10 10 11 -14z m-40 6 c-3 -3 -12 -4
-19 -1 -8 3 -5 6 6 6 11 1 17 -2 13 -5z m73 -14 c0 -11 5 -20 11 -20 6 0 8 7
4 18 -4 11 -3 14 4 7 6 -6 8 -20 5 -32 -5 -19 -10 -21 -25 -12 -20 10 -27 59
-9 59 6 0 10 -9 10 -20z m-33 -27 c27 -27 34 -73 12 -73 -6 0 -8 -10 -5 -22
l6 -23 -11 23 c-13 24 -35 29 -41 10 -3 -7 -5 5 -6 27 -1 21 4 43 11 48 9 7 9
10 0 14 -7 2 -13 9 -13 14 0 17 19 9 47 -18z m193 1 c0 -8 -4 -13 -8 -10 -17
11 -12 -77 6 -98 17 -21 17 -21 -5 -2 -23 19 -31 73 -17 110 8 21 24 21 24 0z
m87 -19 c-7 -13 -14 -20 -15 -14 -2 5 2 16 8 24 18 21 20 18 7 -10z m-67 -60
c5 3 12 0 15 -6 5 -7 0 -10 -11 -7 -11 2 -19 12 -20 23 -1 16 0 16 3 2 3 -9 8
-15 13 -12z m35 -53 c-10 -10 -15 -12 -11 -5 3 6 3 13 -1 16 -5 2 -2 2 5 1 6
-2 12 4 13 14 0 12 2 13 6 4 3 -8 -3 -21 -12 -30z m-942 11 c-13 -2 -35 -2
-50 0 -16 2 -5 4 22 4 28 0 40 -2 28 -4z m-112 -18 c-18 -8 -36 -15 -40 -15
-13 1 45 29 59 29 8 0 0 -6 -19 -14z m808 -2 c0 -11 -3 -13 -6 -5 -2 6 -10 9
-15 6 -7 -4 -8 -2 -4 4 11 18 26 14 25 -5z m185 -16 c7 -6 6 -7 -4 -4 -8 2
-16 12 -17 23 -2 13 -1 15 4 4 3 -8 11 -19 17 -23z m-1570 1 c-4 -7 -14 -21
-23 -31 -14 -17 -14 -20 4 -33 17 -13 22 -11 52 18 40 38 58 29 20 -10 -33
-34 -33 -37 -2 -74 45 -53 29 -89 -42 -97 -46 -6 -48 -8 -51 -38 -2 -18 -8
-33 -13 -33 -5 0 -7 14 -4 31 5 29 -8 59 -25 59 -5 0 -13 -12 -18 -27 -10 -28
-10 -28 -11 8 -1 22 -8 43 -20 53 -51 46 -28 106 41 106 21 0 38 4 38 9 0 5
12 23 26 40 26 32 41 41 28 19z m1646 2 c0 -5 -5 -10 -11 -10 -5 0 -7 5 -4 10
3 6 8 10 11 10 2 0 4 -4 4 -10z m-270 -36 c0 -13 -4 -24 -8 -24 -4 0 -6 -17
-4 -37 3 -21 1 -35 -3 -31 -11 10 -14 98 -3 98 6 0 7 7 4 16 -3 8 -2 12 4 9 6
-3 10 -17 10 -31z m-23 -196 c-2 -18 -4 -6 -4 27 0 33 2 48 4 33 2 -15 2 -42
0 -60z m-207 -163 c-7 -8 -17 -15 -23 -15 -6 0 -2 7 9 15 25 19 30 19 14 0z
m-33 -31 c-3 -3 -12 -4 -19 -1 -8 3 -5 6 6 6 11 1 17 -2 13 -5z m-842 -22 c-3
-3 -11 0 -18 7 -9 10 -8 11 6 5 10 -3 15 -9 12 -12z m120 -52 c3 -5 -4 -6 -15
-3 -11 3 -22 9 -25 13 -3 5 4 6 15 3 11 -3 22 -9 25 -13z m515 -40 c0 -5 -8
-10 -17 -10 -15 0 -16 2 -3 10 19 12 20 12 20 0z m32 -32 c-4 -4 -25 -14 -47
-23 -35 -14 -38 -14 -21 0 11 8 26 15 34 15 7 0 11 4 8 8 -2 4 4 8 15 8 10 0
15 -4 11 -8z m663 -135 c-9 -15 -13 -19 -10 -8 4 11 10 29 13 40 3 11 7 14 9
8 3 -7 -3 -24 -12 -40z m22 -15 c-3 -8 -6 -5 -6 6 -1 11 2 17 5 13 3 -3 4 -12
1 -19z m63 -58 c16 -33 30 -67 30 -77 0 -34 -56 -127 -150 -247 -81 -104 -223
-247 -281 -281 -27 -16 -65 -43 -269 -190 -186 -134 -241 -170 -390 -262 -55
-33 -72 -39 -107 -35 -23 2 -78 -3 -121 -12 -78 -16 -132 -20 -132 -11 0 6
134 246 181 324 22 34 39 67 39 72 0 5 4 9 8 9 4 0 18 -40 30 -89 21 -89 78
-231 92 -231 16 0 128 64 167 96 64 53 170 190 215 280 30 62 41 98 45 147 5
61 4 66 -20 82 -58 37 -152 28 -347 -36 l-91 -29 -29 22 c-27 20 -28 23 -15
48 13 25 20 28 87 33 103 8 472 83 559 113 117 40 251 107 347 173 91 62 115
90 115 135 0 14 1 26 3 26 2 0 17 -27 34 -60z m-108 2 c-6 -2 -9 -9 -6 -17 5
-11 9 -10 25 3 10 9 15 19 10 22 -5 3 -3 11 5 18 12 11 14 10 14 -5 0 -17 -47
-73 -61 -73 -5 0 -20 -11 -34 -24 -50 -47 -139 -93 -160 -84 -18 7 -18 8 2 4
13 -2 25 -1 28 3 2 5 34 25 69 46 36 21 64 41 62 44 -3 3 2 15 10 26 8 10 14
13 14 7 0 -7 5 -12 10 -12 7 0 8 6 2 16 -6 10 -5 25 2 40 9 19 12 21 15 7 2
-10 -1 -19 -7 -21z m-224 -168 c22 -6 21 -8 -15 -30 -43 -26 -53 -29 -53 -13
0 5 4 8 9 5 5 -3 20 3 32 14 l24 19 -32 -3 c-18 -2 -30 1 -27 5 6 10 29 11 62
3z m-175 -11 c-24 -2 -62 -2 -85 0 -24 2 -5 4 42 4 47 0 66 -2 43 -4z m-277
-84 c-43 -43 -83 -79 -89 -79 -5 0 -5 6 2 13 6 8 7 18 3 22 -4 5 -2 5 4 2 14
-8 107 86 97 98 -5 4 -1 5 7 1 9 -4 7 -1 -3 7 -16 13 -14 15 20 15 l39 1 -80
-80z m-51 62 c-16 -14 -55 -23 -55 -12 0 8 16 14 55 20 5 0 5 -2 0 -8z m40 -1
c3 -6 -1 -7 -9 -4 -18 7 -21 14 -7 14 6 0 13 -4 16 -10z m375 -25 c-7 -8 -20
-15 -29 -14 -11 0 -10 3 7 11 12 6 22 16 22 21 0 6 3 7 6 4 4 -4 1 -13 -6 -22z
m-483 9 c-3 -3 -12 -4 -19 -1 -8 3 -5 6 6 6 11 1 17 -2 13 -5z m-47 -14 c-8
-5 -22 -9 -30 -9 -10 0 -8 3 5 9 27 12 43 12 25 0z m-63 -16 c-3 -3 -12 -4
-19 -1 -8 3 -5 6 6 6 11 1 17 -2 13 -5z m513 -8 c-7 -7 -13 -7 -20 0 -6 6 -3
10 10 10 13 0 16 -4 10 -10z m-933 -13 c18 -3 30 -9 28 -14 -5 -8 -95 18 -95
28 0 3 8 2 18 -2 9 -4 32 -9 49 -12z m382 13 c-2 -1 -19 -8 -36 -14 -37 -12
-45 -6 -10 8 22 9 54 13 46 6z m488 -11 c0 -8 -9 -15 -21 -15 -20 0 -20 0 0
15 10 8 19 15 20 15 0 0 1 -7 1 -15z m-792 -15 c-3 -5 -12 -7 -20 -3 -21 7
-19 13 6 13 11 0 18 -4 14 -10z m224 6 c-12 -10 -59 -15 -59 -6 0 5 14 10 32
10 17 0 29 -2 27 -4z m511 -6 c8 -5 11 -10 5 -10 -5 0 -17 5 -25 10 -8 5 -10
10 -5 10 6 0 17 -5 25 -10z m-602 -5 c-7 -8 -87 -9 -95 -2 -3 4 18 7 47 7 29
0 51 -2 48 -5z m-120 -30 c59 -29 72 -44 15 -18 -40 18 -81 43 -72 43 3 0 29
-11 57 -25z m585 -2 c-7 -2 -19 -2 -25 0 -7 3 -2 5 12 5 14 0 19 -2 13 -5z
m-153 -24 c0 -5 -4 -9 -8 -9 -5 0 -9 7 -9 15 0 8 4 12 9 9 4 -3 8 -9 8 -15z
m-355 -9 c-3 -5 -1 -10 6 -10 7 0 10 -3 6 -6 -9 -9 -28 6 -22 17 4 5 8 9 11 9
3 0 2 -4 -1 -10z m46 -23 c-10 -9 -11 -8 -5 6 3 10 9 15 12 12 3 -3 0 -11 -7
-18z m184 13 c4 -6 -12 -9 -42 -9 l-48 2 40 7 c22 4 41 8 42 9 1 0 5 -3 8 -9z
m58 3 c-7 -2 -21 -2 -30 0 -10 3 -4 5 12 5 17 0 24 -2 18 -5z m-263 -45 c20
-12 30 -23 22 -25 -18 -7 -72 20 -72 34 0 18 10 16 50 -9z m77 -8 c-14 -36
-17 -37 -41 -3 -12 16 -14 23 -5 17 22 -14 37 -13 43 2 3 8 7 14 10 14 2 0 -1
-13 -7 -30z m-199 -197 c14 -42 60 -82 108 -96 l43 -12 -35 -55 c-19 -30 -72
-120 -117 -199 -45 -79 -88 -146 -95 -149 -8 -2 -39 2 -69 11 -41 11 -63 12
-84 5 -16 -5 -33 -8 -38 -6 -8 2 70 133 89 148 3 3 17 21 30 40 13 19 59 84
103 143 44 59 77 110 74 113 -2 3 -48 -54 -101 -126 -53 -72 -105 -139 -114
-148 -10 -10 -40 -53 -67 -96 -43 -69 -72 -96 -105 -96 -9 0 65 298 106 425
23 69 32 85 48 85 11 0 33 4 50 10 40 12 115 27 143 29 15 1 24 -7 31 -26z
m467 -537 c105 -22 215 -62 360 -129 220 -101 313 -170 357 -262 15 -33 28
-66 28 -73 0 -9 7 -11 21 -7 14 5 19 3 18 -7 -2 -7 3 -24 10 -36 18 -33 4 -42
-19 -12 -12 15 -20 19 -20 11 0 -8 7 -23 17 -33 20 -23 10 -36 -14 -17 -15 11
-16 11 -6 -1 10 -11 10 -17 -3 -32 -14 -14 -17 -52 -22 -215 l-5 -199 32 -29
c35 -34 37 -40 15 -49 -22 -8 -38 3 -25 18 7 9 5 17 -9 29 -19 16 -20 16 -20
-3 0 -40 -102 -55 -162 -24 -15 8 -31 14 -35 14 -5 0 -8 3 -8 8 -1 4 -6 16
-12 27 -5 11 -13 49 -16 85 -4 44 -3 57 3 40 7 -19 8 -14 5 23 -1 26 1 47 6
47 5 0 7 14 4 30 -3 17 -1 30 3 30 5 0 7 11 4 25 -3 16 1 27 11 31 9 3 19 19
22 35 4 16 11 31 16 34 5 4 9 14 9 23 -1 15 -3 14 -16 -3 l-16 -20 4 20 c2 14
-2 20 -15 19 -10 -1 -25 9 -34 22 -8 13 -19 21 -24 18 -5 -3 -9 -1 -9 4 0 9
-43 32 -62 32 -7 0 -8 -27 -3 -86 5 -64 12 -91 26 -105 10 -10 23 -19 29 -19
15 0 32 -38 20 -45 -5 -3 -10 -1 -10 5 0 7 -9 9 -22 6 -13 -3 -17 -3 -11 0 9
4 10 11 3 25 -6 10 -14 19 -18 19 -9 0 -2 -103 8 -113 7 -8 -11 -77 -30 -110
-6 -10 -8 -23 -4 -30 4 -7 4 -9 1 -6 -4 3 -29 -16 -56 -42 -38 -36 -64 -52
-110 -65 -34 -9 -61 -20 -61 -25 0 -10 -46 -3 -119 19 l-53 16 5 56 c8 74 51
177 121 291 54 87 56 93 40 110 -10 11 -14 19 -9 19 4 0 13 -7 20 -16 10 -14
16 -9 46 37 19 29 33 60 31 69 -2 11 -1 12 6 2 6 -9 14 -6 32 13 l24 25 -24
18 c-54 39 -79 51 -85 42 -9 -15 -28 -12 -22 3 3 7 -11 19 -34 29 l-39 17 0
-37 c0 -20 -3 -48 -7 -61 -4 -17 -3 -22 6 -17 6 4 9 12 6 17 -3 5 2 6 11 2 14
-5 16 -1 12 25 -2 17 -1 29 4 26 4 -3 8 -29 7 -57 0 -34 -3 -45 -8 -33 -6 17
-10 15 -38 -18 l-30 -37 -51 31 c-36 23 -55 29 -66 23 -14 -7 -10 -12 19 -26
20 -9 38 -24 41 -32 4 -8 10 -12 15 -9 15 9 10 -6 -7 -23 -11 -12 -12 -18 -4
-23 8 -5 6 -9 -5 -14 -11 -4 -15 -12 -11 -23 4 -10 4 -14 0 -10 -10 9 -46 -62
-38 -75 4 -7 3 -8 -4 -4 -11 7 -14 2 -16 -34 -1 -8 -5 -13 -10 -12 -5 2 -12
-2 -17 -9 -6 -10 -34 -2 -121 31 -104 40 -276 115 -286 125 -8 8 20 65 29 60
4 -3 17 23 27 57 l20 63 76 3 c72 3 76 4 76 26 0 18 -5 22 -27 21 -19 -2 -21
-1 -5 2 18 4 22 11 22 44 0 40 -7 48 -28 27 -7 -7 -12 -10 -12 -7 0 3 12 16
26 30 14 13 25 20 23 14 -3 -15 22 -105 30 -105 14 0 51 46 44 54 -4 4 0 4 10
0 37 -14 13 18 -55 73 -71 57 -75 59 -140 62 l-67 3 -11 -42 c-10 -36 -9 -45
7 -63 9 -12 11 -16 3 -9 -31 27 -32 10 0 -23 18 -19 37 -32 42 -29 4 3 6 10 3
15 -4 5 1 12 9 15 9 3 13 10 10 15 -3 5 -10 6 -16 3 -7 -4 -8 -2 -4 5 6 9 11
9 22 0 13 -10 12 -15 -1 -33 -8 -12 -20 -33 -26 -48 -6 -16 -14 -28 -18 -28
-4 0 -22 16 -41 35 -23 24 -36 31 -41 23 -11 -17 0 -30 19 -23 9 3 13 3 10 -1
-4 -4 -1 -16 7 -28 20 -28 19 -53 -4 -84 -10 -15 -35 -60 -55 -99 -37 -75 -55
-98 -31 -40 l13 32 -38 -3 c-37 -4 -39 -6 -50 -53 -7 -27 -16 -49 -21 -49 -5
0 -9 -8 -10 -17 0 -17 -45 -155 -64 -197 -6 -14 -5 -17 3 -12 8 4 10 2 6 -7
-3 -8 1 -17 9 -20 9 -3 18 7 26 30 7 19 15 33 17 30 4 -4 -13 -51 -42 -114 -8
-17 -14 -36 -14 -41 0 -6 -4 -13 -9 -16 -11 -7 -8 8 7 47 15 35 15 40 2 32 -5
-3 -7 0 -4 8 3 8 -2 17 -10 20 -11 4 -21 -4 -33 -26 -9 -18 -17 -36 -18 -42 0
-5 -4 -10 -10 -11 -5 0 -21 -5 -35 -11 -81 -34 -141 -48 -211 -48 -101 0 -151
23 -181 84 -19 40 -20 50 -10 100 7 30 16 57 21 61 27 16 114 167 105 182 -4
7 -3 8 5 4 14 -9 66 98 55 115 -4 7 -3 9 4 5 13 -8 47 78 37 95 -5 7 -4 10 2
6 13 -8 27 39 17 55 -4 7 -3 8 4 4 7 -4 12 -1 12 6 0 8 13 35 29 60 16 25 26
49 23 53 -4 4 -2 5 3 3 6 -1 38 21 70 51 33 30 52 49 43 42 -12 -9 -18 -10
-18 -2 0 11 13 15 39 12 7 -2 10 2 7 7 -3 5 2 9 12 8 9 0 16 4 15 11 -1 6 4
14 13 17 9 4 12 2 8 -5 -4 -8 0 -7 15 0 11 7 21 16 21 22 0 6 4 8 10 4 13 -8
280 107 273 118 -3 5 4 6 16 2 12 -3 21 -2 21 4 0 5 8 12 18 15 33 10 297 -3
367 -18z m-668 7 c-9 -2 -14 -9 -11 -15 4 -6 1 -9 -6 -6 -25 8 -20 24 7 25 16
0 20 -1 10 -4z m-73 -18 c4 -11 2 -14 -6 -9 -8 5 -9 2 -5 -9 4 -10 2 -16 -6
-14 -7 1 -11 -4 -9 -11 1 -8 -2 -11 -7 -8 -5 4 -18 -4 -28 -17 -10 -13 -26
-26 -36 -30 -10 -4 -15 -12 -12 -17 4 -6 3 -10 -2 -9 -20 3 -25 -2 -13 -16 7
-8 17 -12 24 -8 7 4 6 1 -1 -7 -10 -11 -16 -11 -30 3 -17 15 -24 13 -98 -33
-48 -29 -79 -55 -79 -64 1 -8 -1 -15 -5 -14 -21 2 -31 -3 -25 -14 6 -10 3 -9
-8 0 -14 11 -21 11 -40 -2 -57 -37 -141 -57 -228 -55 -47 2 -91 0 -98 -5 -8
-5 -10 -2 -6 9 4 11 2 14 -9 10 -9 -4 -17 2 -21 17 -9 35 -7 114 4 142 11 30
30 35 30 7 0 -25 43 -69 85 -87 19 -7 65 -14 102 -14 116 1 193 52 193 129 0
67 72 115 191 128 129 15 136 15 143 -2z m121 5 c3 -5 -1 -10 -9 -10 -9 0 -16
5 -16 10 0 6 4 10 9 10 6 0 13 -4 16 -10z m15 -25 c-14 -8 -32 -14 -40 -14 -8
0 -1 6 15 14 40 18 57 18 25 0z m44 -29 c-10 -8 -21 -12 -24 -10 -5 6 21 24
34 24 6 0 1 -6 -10 -14z m-159 -6 c-8 -13 1 -13 28 1 36 19 5 -6 -38 -30 -22
-13 -32 -16 -23 -8 10 8 15 17 11 21 -4 4 -1 11 7 16 19 12 23 12 15 0z m-537
-31 c68 -6 130 -8 138 -5 23 9 18 -66 -6 -97 -26 -33 -74 -48 -154 -48 -104 0
-156 39 -156 117 0 47 7 57 35 50 11 -3 75 -11 143 -17z m612 -3 c0 -2 -9 -6
-20 -9 -11 -3 -18 -1 -14 4 5 9 34 13 34 5z m-130 -15 c0 -5 -11 -16 -24 -24
-22 -15 -24 -15 -21 1 1 10 9 16 19 14 9 -2 16 2 16 8 0 5 2 10 5 10 3 0 5 -4
5 -9z m1297 -34 c171 -72 313 -180 361 -273 73 -143 68 -351 -11 -441 l-32
-36 -5 189 -5 190 -34 69 c-19 38 -52 88 -74 112 -45 49 -194 161 -257 194
-22 12 -40 23 -40 25 0 9 22 2 97 -29z m-1416 -30 c-10 -9 -11 -8 -5 6 3 10 9
15 12 12 3 -3 0 -11 -7 -18z m-16 -26 c3 -5 2 -12 -3 -15 -5 -3 -9 1 -9 9 0
17 3 19 12 6z m48 -19 c-10 -10 -20 -17 -22 -15 -2 1 -11 -6 -18 -17 -8 -11
-18 -18 -22 -15 -5 2 -19 -7 -32 -22 -18 -19 -19 -25 -7 -20 12 4 15 2 11 -9
-3 -8 -8 -13 -11 -10 -9 10 -43 -15 -36 -26 5 -7 2 -8 -6 -3 -10 6 -8 12 9 27
13 10 20 18 15 18 -4 0 5 13 21 30 15 16 31 28 34 27 3 -1 19 11 35 26 32 30
56 38 29 9z m-73 -7 c0 0 -17 -17 -37 -36 -21 -18 -34 -30 -30 -25 4 5 1 16
-6 25 -11 14 -10 14 6 2 15 -12 21 -9 18 12 0 4 5 6 12 5 6 -2 11 2 10 8 -1 6
5 11 13 11 8 0 14 -1 14 -2z m567 -20 c0 -8 -4 -12 -9 -9 -5 3 -6 10 -3 15 9
13 12 11 12 -6z m63 -19 c-7 -7 -13 -7 -20 0 -6 6 -3 10 10 10 13 0 16 -4 10
-10z m-790 -20 c0 -11 -33 -36 -47 -36 -11 0 -9 6 8 20 23 18 39 25 39 16z
m740 -16 c-6 -11 -13 -20 -16 -20 -2 0 0 9 6 20 6 11 13 20 16 20 2 0 0 -9 -6
-20z m110 -5 c0 -8 -4 -15 -10 -15 -5 0 -7 7 -4 15 4 8 8 15 10 15 2 0 4 -7 4
-15z m-807 -67 c-10 -17 -25 -33 -33 -36 -9 -3 -8 1 4 10 12 10 16 20 11 28
-5 8 -4 11 2 7 6 -4 13 0 17 8 3 8 8 15 12 15 3 0 -2 -14 -13 -32z m724 7 c0
-8 -7 -17 -14 -19 -8 -3 -11 -10 -8 -16 3 -5 -1 -10 -10 -10 -13 0 -12 5 7 30
25 35 25 34 25 15z m-1095 -30 c6 0 12 -8 14 -18 2 -18 2 -18 -18 0 -11 10
-24 27 -29 38 -10 20 -10 20 6 0 9 -11 21 -20 27 -20z m2172 -11 c3 -8 2 -12
-4 -9 -6 3 -10 10 -10 16 0 14 7 11 14 -7z m-2109 -24 c-3 -5 3 -13 12 -19 10
-6 13 -11 6 -11 -6 0 -18 7 -26 15 -8 8 -18 11 -23 7 -5 -4 -2 1 5 10 13 17
37 15 26 -2z m245 -10 c-14 -11 -29 -20 -35 -20 -5 0 4 9 20 20 38 25 48 25
15 0z m1373 -13 c4 3 7 4 7 1 0 -3 -8 -12 -17 -19 -12 -10 -14 -10 -9 -1 4 7
1 15 -8 18 -9 3 -16 11 -16 17 0 5 8 3 18 -6 10 -10 22 -14 25 -10z m-1307
-11 c1 -7 -5 -13 -12 -13 -16 0 -16 0 -8 22 7 17 17 13 20 -9z m-206 -1 c0 -1
-12 -2 -26 -2 -17 0 -22 2 -13 7 10 7 39 3 39 -5z m46 -3 c-10 -2 -22 0 -28 6
-6 6 0 7 19 4 21 -5 23 -7 9 -10z m-106 -58 c-29 -13 -81 -52 -116 -86 -36
-34 -62 -54 -58 -45 7 20 -4 22 -27 4 -29 -22 -38 -289 -21 -590 l7 -117 -30
5 c-57 12 -64 16 -71 48 -12 47 -6 566 7 604 20 62 273 217 335 205 22 -4 19
-7 -26 -28z m194 21 c-3 -8 -34 -32 -67 -53 -34 -22 -81 -60 -105 -86 l-43
-46 1 -168 c1 -156 -15 -481 -25 -509 -8 -22 -33 -14 -39 12 -16 61 -24 278
-19 474 l6 211 61 51 c34 27 87 62 118 76 31 15 54 31 51 36 -3 6 -1 7 5 3 7
-4 20 -2 29 3 25 15 33 13 27 -4z m1319 8 c-7 -2 -13 -11 -13 -18 0 -8 -5 -17
-12 -21 -6 -4 -9 -3 -6 2 3 5 8 17 11 27 4 9 12 17 19 16 10 0 10 -2 1 -6z
m-1279 -19 c3 -8 2 -12 -4 -9 -10 6 -14 -11 -12 -50 0 -11 -2 -14 -4 -7 -3 6
-10 9 -15 6 -6 -3 -3 11 5 31 9 21 16 39 16 41 0 10 8 3 14 -12z m619 -19 c-3
-9 -8 -14 -10 -11 -3 3 -2 9 2 15 9 16 15 13 8 -4z m587 0 c0 -8 -7 -15 -16
-15 -14 0 -14 -3 -4 -15 7 -8 8 -15 2 -15 -5 0 -15 6 -21 14 -10 11 -8 16 8
21 12 3 21 11 21 16 0 5 2 9 5 9 3 0 5 -7 5 -15z m45 -44 c1 -11 -4 -17 -11
-14 -6 2 -9 13 -7 24 6 23 16 17 18 -10z m603 -21 c-7 -10 -14 -17 -17 -15 -4
4 18 35 25 35 2 0 -1 -9 -8 -20z m29 -2 c-3 -8 -6 -5 -6 6 -1 11 2 17 5 13 3
-3 4 -12 1 -19z m-342 -39 c4 -22 4 -43 1 -46 -3 -4 -6 5 -6 20 0 14 -4 28 -9
31 -15 10 -20 45 -6 39 8 -2 17 -23 20 -44z m-1579 13 c2 -9 1 -9 -3 -1 -4 8
-12 3 -25 -12 l-19 -24 12 28 c12 27 31 32 35 9z m1204 3 c0 -12 -19 -12 -23
0 -4 9 -1 12 9 8 7 -3 14 -7 14 -8z m50 -15 c0 -11 -4 -20 -9 -20 -5 0 -7 9
-4 20 3 11 7 20 9 20 2 0 4 -9 4 -20z m667 -77 c-2 -21 -4 -6 -4 32 0 39 2 55
4 38 2 -18 2 -50 0 -70z m-2013 42 c-6 -16 -24 -21 -24 -7 0 11 11 22 21 22 5
0 6 -7 3 -15z m876 -68 c111 -48 249 -97 273 -97 21 0 38 -25 31 -44 -3 -9
-10 -14 -14 -11 -4 3 -11 -2 -14 -11 -3 -8 -2 -12 4 -9 18 11 10 -2 -19 -33
-16 -16 -32 -28 -35 -24 -3 3 -6 0 -6 -6 0 -6 5 -14 10 -17 6 -3 10 -2 10 2 0
5 7 18 15 29 12 15 12 11 -1 -18 -16 -35 -50 -64 -37 -32 3 7 0 14 -5 14 -17
0 -25 -20 -13 -34 9 -10 6 -19 -9 -37 -11 -14 -19 -18 -20 -11 0 7 -5 10 -12
6 -7 -4 -8 -3 -4 5 4 6 12 8 18 5 12 -7 29 16 22 28 -3 5 -21 -5 -40 -22 -19
-16 -40 -30 -47 -30 -7 0 -3 -8 8 -16 20 -16 20 -16 -1 -10 -12 4 -41 -3 -68
-15 -61 -27 -140 -27 -200 0 -68 30 -68 7 0 -58 125 -120 177 -165 171 -149
-4 12 -2 15 8 11 12 -4 12 -10 -5 -32 -30 -43 -47 -55 -56 -39 -4 7 -4 10 1 6
10 -9 35 10 35 26 0 6 -9 17 -21 24 -12 8 -18 9 -15 3 4 -5 2 -12 -3 -15 -5
-4 -8 2 -6 11 3 20 -133 165 -147 157 -5 -3 -7 0 -6 8 2 7 -3 12 -10 10 -6 -1
-11 1 -11 5 4 27 -7 22 -51 -22 -27 -26 -46 -53 -43 -58 4 -6 1 -7 -6 -2 -15
8 -93 -63 -85 -77 3 -5 0 -7 -7 -6 -7 2 -16 -8 -20 -22 -9 -32 -11 -3 -3 40 5
23 9 28 16 18 6 -8 7 -1 4 22 -5 29 -4 31 4 12 l10 -23 32 30 c18 17 37 31 41
31 5 0 5 5 2 10 -3 6 -1 10 6 10 17 0 63 52 64 73 1 10 -15 31 -35 47 -29 23
-40 27 -50 17 -20 -19 -1 33 21 56 10 11 16 25 12 30 -3 6 -1 7 6 3 9 -6 8
-14 -4 -32 -15 -23 -15 -26 1 -42 10 -9 21 -17 25 -17 4 0 16 -11 27 -25 11
-14 24 -22 28 -18 3 4 -7 21 -25 37 -17 16 -31 37 -32 48 -2 39 3 77 17 116
16 46 18 58 4 37 -5 -8 -10 -10 -9 -5 0 14 28 62 29 50 0 -5 19 23 41 64 30
53 38 76 30 84 -8 8 -11 7 -13 -3 0 -8 -2 -19 -3 -25 -2 -5 -3 -17 -4 -24 -1
-11 -4 -12 -12 -4 -8 8 -6 19 5 41 l16 30 37 -18 c21 -10 85 -38 143 -63z
m863 68 c-3 -9 -8 -14 -10 -11 -3 3 -2 9 2 15 9 16 15 13 8 -4z m-1681 -3 c-7
-5 -21 -25 -32 -44 -14 -27 -16 -38 -7 -48 9 -10 9 -11 0 -6 -6 3 -21 -6 -33
-21 -20 -26 -21 -28 -3 -42 17 -13 17 -13 0 -8 -14 5 -19 0 -24 -26 -4 -17 -6
-35 -5 -39 1 -5 -3 -8 -8 -8 -5 0 -10 -7 -10 -17 0 -9 -3 -14 -6 -11 -7 8 35
146 50 161 6 7 23 36 36 65 14 29 31 52 40 52 12 0 12 -2 2 -8z m1205 -30
c-11 -28 -14 -29 -32 -15 -20 14 -20 15 0 11 11 -2 20 2 20 7 0 14 16 37 21
32 2 -2 -1 -18 -9 -35z m39 -26 c-14 -31 -27 -56 -30 -56 -2 0 7 27 21 60 15
33 28 58 30 56 2 -2 -7 -29 -21 -60z m-689 -11 c-11 -31 -22 -53 -25 -51 -3 3
1 19 8 35 6 16 9 35 4 42 -4 8 -3 10 4 5 7 -4 12 -1 12 8 0 9 4 16 9 16 5 0 0
-25 -12 -55z m-1614 34 c8 6 17 8 20 4 10 -10 -13 -33 -33 -33 -20 0 -43 23
-33 33 3 4 12 2 20 -4 9 -8 17 -8 26 0z m-163 -19 c11 -11 16 -20 12 -20 -5 0
-17 9 -27 20 -10 11 -15 20 -12 20 4 0 16 -9 27 -20z m2398 -46 c-7 -15 -14
-21 -16 -15 -2 7 2 18 8 26 18 22 21 18 8 -11z m770 -111 l-2 -128 -3 123 c-3
88 -7 121 -15 116 -7 -4 -8 -3 -4 4 20 32 26 3 24 -115z m-3070 72 c15 -14 23
-25 18 -25 -6 0 -20 10 -33 22 l-23 22 -31 -23 c-38 -28 -50 -21 -13 8 35 27
49 26 82 -4z m2265 10 c4 0 7 -4 7 -10 0 -12 -5 -12 -45 0 -26 7 -27 9 -10 15
11 4 25 5 30 1 6 -3 13 -6 18 -6z m470 2 c4 15 5 14 6 -4 0 -12 -3 -24 -8 -27
-5 -3 -7 -14 -4 -25 2 -10 -1 -21 -9 -23 -10 -4 -13 4 -11 33 1 22 -2 37 -6
35 -4 -3 -8 1 -8 9 0 13 3 13 18 -1 16 -14 18 -14 22 3z m-1102 -56 c-12 -28
-21 -39 -26 -31 -4 7 -4 15 1 19 5 3 15 19 22 35 7 16 15 26 18 24 2 -3 -4
-24 -15 -47z m682 24 c-3 -9 -8 -14 -10 -11 -3 3 -2 9 2 15 9 16 15 13 8 -4z
m-27 -54 c-9 -16 -13 -31 -10 -33 3 -3 -2 -8 -11 -11 -12 -5 -11 1 5 33 11 22
23 40 25 40 3 0 -1 -13 -9 -29z m-2195 -18 c19 -21 74 -75 122 -120 l88 -83
27 17 27 17 -19 -22 -20 -23 79 -79 c44 -44 75 -80 70 -80 -6 0 -44 34 -84 76
l-74 75 -71 -70 c-39 -39 -75 -71 -78 -71 -4 0 20 26 53 58 33 31 65 65 70 75
8 14 -12 38 -118 142 -70 68 -123 124 -118 125 6 0 27 -17 46 -37z m-315 -59
c-42 -42 -79 -74 -82 -72 -5 6 141 148 152 148 4 0 -27 -34 -70 -76z m2931 44
c-3 -8 -6 -5 -6 6 -1 11 2 17 5 13 3 -3 4 -12 1 -19z m-2192 -16 c-6 -4 -44
-39 -85 -78 -41 -38 -68 -60 -60 -50 29 38 135 136 147 136 4 0 3 -4 -2 -8z
m2232 -24 c-3 -7 -5 -2 -5 12 0 14 2 19 5 13 2 -7 2 -19 0 -25z m-57 -15 c-11
-17 -11 -17 -6 0 3 10 6 24 7 30 0 9 2 9 5 0 3 -7 0 -20 -6 -30z m-1705 -40
c-10 -40 -17 -20 -9 23 5 24 9 32 12 21 2 -10 1 -30 -3 -44z m1269 35 c-3 -5
-10 -6 -15 -3 -5 4 -9 1 -9 -4 0 -6 5 -11 11 -11 5 0 7 -5 3 -12 -6 -9 -9 -9
-12 1 -3 8 -8 7 -18 -6 -13 -15 -13 -13 0 13 8 17 22 31 30 31 8 0 13 -4 10
-9z m493 -25 c1 -19 -1 -22 -8 -12 -11 17 -12 39 -1 39 4 0 8 -12 9 -27z
m-1234 2 c-3 -9 -8 -14 -10 -11 -3 3 -2 9 2 15 9 16 15 13 8 -4z m1167 -4 c-1
-3 -7 -17 -14 -30 -12 -22 -13 -22 -12 12 1 23 5 33 13 30 7 -3 13 -8 13 -12z
m54 -27 c4 -9 4 -19 1 -22 -3 -3 -5 1 -5 9 -1 10 -5 8 -17 -6 -14 -18 -15 -18
-9 -2 3 10 6 23 6 28 0 15 17 10 24 -7z m-487 0 c-3 -3 -12 -4 -19 -1 -8 3 -5
6 6 6 11 1 17 -2 13 -5z m-1266 -78 c5 -6 18 -1 34 14 21 20 28 21 47 11 13
-6 16 -10 7 -7 -9 2 -36 -13 -60 -34 -39 -33 -42 -39 -30 -54 11 -13 11 -20 3
-28 -7 -7 -12 -8 -12 -2 0 5 -5 2 -10 -6 -8 -12 -10 -10 -10 9 0 20 2 21 15
11 11 -9 15 -9 15 -1 0 6 -6 14 -13 17 -8 3 -14 19 -14 37 -1 24 1 27 6 13 6
-15 10 -16 15 -7 5 7 3 18 -3 24 -6 6 -10 25 -10 42 l2 30 4 -30 c3 -16 9 -34
14 -39z m612 27 c-7 -2 -13 -12 -13 -20 0 -9 -3 -14 -6 -10 -10 10 4 37 18 36
10 0 10 -2 1 -6z m1098 -16 c-10 -9 -11 -8 -5 6 3 10 9 15 12 12 3 -3 0 -11
-7 -18z m-1173 -12 c-3 -3 -9 2 -12 12 -6 14 -5 15 5 6 7 -7 10 -15 7 -18z
m650 11 c-10 -7 -14 -17 -10 -21 4 -5 2 -5 -4 -2 -13 7 -80 -130 -76 -153 3
-11 1 -12 -8 -4 -16 16 74 194 99 194 14 -1 14 -2 -1 -14z m457 -26 c-9 -18
-19 -29 -22 -26 -3 3 0 12 6 20 7 8 9 21 5 27 -4 8 -3 9 4 5 7 -4 12 -2 12 5
0 7 3 10 6 7 3 -4 -2 -20 -11 -38z m-525 10 c-6 -11 -15 -20 -21 -20 -6 0 -7
-4 -4 -10 3 -5 0 -7 -8 -4 -12 4 -11 10 7 29 26 29 40 31 26 5z m868 -47 c-56
-56 -70 -65 -80 -54 -9 9 -9 12 -1 7 15 -8 82 50 94 81 5 14 13 22 18 18 5 -3
12 -1 16 5 3 5 9 10 13 10 4 0 -23 -30 -60 -67z m-1188 15 c0 -12 -6 -9 -26
13 -19 22 -19 22 4 8 12 -8 22 -17 22 -21z m250 22 c-8 -5 -19 -10 -25 -10 -5
0 -3 5 5 10 8 5 20 10 25 10 6 0 3 -5 -5 -10z m383 -4 c4 -11 1 -13 -10 -9
-12 5 -14 3 -8 -7 5 -8 4 -11 -2 -7 -9 6 -26 -17 -20 -27 5 -8 -26 -35 -35
-30 -13 8 -39 -16 -31 -30 3 -6 3 -8 -2 -4 -11 10 -38 -20 -29 -33 4 -8 3 -9
-5 -5 -14 9 -143 -113 -134 -127 3 -6 1 -7 -4 -4 -6 4 -21 -2 -33 -13 l-23
-20 44 -2 44 -1 -38 -4 c-39 -4 -87 17 -87 38 0 6 7 3 15 -5 14 -14 21 -10 65
34 27 28 52 50 54 50 17 0 54 53 51 71 -3 17 -1 19 9 9 11 -8 29 5 88 65 40
41 76 75 79 75 4 0 9 -7 12 -14z m261 -11 c-9 -14 -18 -25 -21 -25 -5 0 5 18
20 38 17 22 18 13 1 -13z m-1175 -24 c-6 -18 -13 -30 -15 -28 -2 2 1 18 7 36
6 18 13 30 15 28 2 -2 -1 -18 -7 -36z m1093 -13 c-14 -14 -44 -20 -36 -7 3 5
9 7 14 4 5 -3 11 -1 15 5 3 5 9 10 13 10 3 0 1 -5 -6 -12z m-546 -30 c-9 -12
-16 -19 -16 -15 0 11 24 47 28 42 2 -2 -3 -14 -12 -27z m596 10 c-9 -9 -9 -15
0 -27 7 -9 9 -13 4 -9 -5 4 -17 3 -27 -3 -17 -9 -17 -6 2 26 12 20 24 33 27
30 3 -3 0 -11 -6 -17z m-1101 -15 c-12 -20 -14 -14 -5 12 4 9 9 14 11 11 3 -2
0 -13 -6 -23z m1024 -3 c-3 -5 -12 -10 -18 -10 -7 0 -6 4 3 10 19 12 23 12 15
0z m-1595 -50 c0 -16 -2 -30 -4 -30 -2 0 -6 14 -8 30 -3 17 -1 30 4 30 4 0 8
-13 8 -30z m490 20 c0 8 2 11 5 9 7 -8 -7 -49 -17 -49 -5 0 -6 5 -3 10 4 6 1
19 -7 28 -12 15 -11 16 5 3 13 -11 17 -11 17 -1z m563 -5 c-3 -9 -8 -14 -10
-11 -3 3 -2 9 2 15 9 16 15 13 8 -4z m84 -10 c0 -8 -4 -12 -9 -9 -5 3 -6 10
-3 15 9 13 12 11 12 -6z m403 -20 c-19 -19 -37 -35 -41 -35 -10 0 55 69 65 69
6 1 -5 -15 -24 -34z m78 5 c-7 -11 -17 -20 -22 -20 -5 0 -1 9 9 20 10 11 20
20 22 20 2 0 -2 -9 -9 -20z m267 10 c-3 -5 -11 -10 -16 -10 -6 0 -7 5 -4 10 3
6 11 10 16 10 6 0 7 -4 4 -10z m-855 -31 c-7 -11 -14 -18 -17 -15 -3 3 0 12 7
21 18 21 23 19 10 -6z m-1053 -81 c-2 -18 -4 -4 -4 32 0 36 2 50 4 33 2 -18 2
-48 0 -65z m1109 68 c0 -14 -5 -21 -9 -17 -4 4 -5 15 -1 24 9 24 12 21 10 -7z
m754 0 c-14 -13 -27 -22 -29 -20 -2 2 -12 -8 -23 -21 -23 -29 -48 -33 -48 -7
0 13 2 14 9 3 5 -7 14 -10 20 -7 6 4 8 12 5 18 -4 7 -2 8 4 4 7 -4 12 -3 12 2
0 9 58 51 70 52 2 0 -7 -11 -20 -24z m-1365 -5 c-3 -6 -11 -11 -17 -11 -6 0
-6 6 2 15 14 17 26 13 15 -4z m1015 -16 c0 -2 -20 -18 -45 -35 -35 -24 -45
-27 -45 -15 0 9 5 13 10 10 6 -3 10 -1 10 5 0 6 4 9 8 6 4 -2 19 4 32 15 27
20 30 22 30 14z m-1020 -15 c0 -5 -2 -10 -4 -10 -3 0 -8 5 -11 10 -3 6 -1 10
4 10 6 0 11 -4 11 -10z m1085 -12 c-1 -15 -8 -22 -19 -20 -15 3 -21 -9 -17
-32 1 -5 -4 -4 -12 2 -8 7 -16 11 -18 9 -3 -1 4 6 16 15 11 10 27 24 35 33 18
19 17 19 15 -7z m-483 -13 c-2 -14 -6 -25 -8 -25 -2 0 -4 11 -4 25 0 14 4 25
9 25 4 0 6 -11 3 -25z m612 -32 c-32 -24 -54 -34 -54 -25 0 5 11 15 25 22 13
7 22 17 19 21 -3 5 3 6 12 2 15 -6 15 -7 -2 -20z m-1245 -27 c-7 -14 -16 -26
-21 -26 -5 0 -7 -4 -4 -9 3 -5 -2 -15 -11 -22 -13 -11 -15 -11 -9 -1 7 11 4
11 -13 0 -12 -7 -21 -20 -21 -28 0 -13 1 -13 10 0 5 8 11 12 15 9 3 -3 -4 -14
-15 -24 -21 -19 -21 -19 -19 22 2 24 7 39 13 36 5 -4 7 1 2 12 -5 15 -4 16 8
6 16 -13 32 1 21 19 -4 6 1 7 11 3 13 -5 15 -3 9 7 -5 8 -4 11 2 7 6 -4 14 0
17 9 4 9 9 15 12 12 2 -3 -1 -17 -7 -32z m-506 14 c11 0 17 -8 17 -25 l0 -24
-35 20 c-45 27 -57 44 -24 36 13 -4 32 -7 42 -7z m636 -45 c9 -12 4 -8 -11 7
-16 16 -28 34 -28 41 0 6 6 3 12 -8 6 -11 18 -29 27 -40z m-429 29 c0 -2 -21
-4 -47 -3 -37 1 -42 3 -23 8 24 7 70 3 70 -5z m164 -5 c-8 -14 -21 -11 -21 5
0 8 6 12 14 9 7 -3 10 -9 7 -14z m281 12 c3 -5 2 -12 -3 -15 -5 -3 -9 1 -9 9
0 17 3 19 12 6z m343 1 c15 12 16 11 3 -4 -7 -10 -17 -15 -22 -12 -5 3 -9 -1
-9 -9 0 -19 -27 -30 -36 -15 -4 6 -3 8 3 5 5 -4 16 5 24 19 7 14 15 21 17 15
3 -9 9 -8 20 1z m92 -7 c0 -8 14 -24 30 -37 l31 -22 -46 -23 c-27 -14 -45 -30
-45 -41 0 -15 -2 -15 -10 -2 -8 13 -10 13 -10 -2 0 -24 18 -32 38 -17 14 11
14 9 -1 -7 -18 -19 -19 -19 -38 6 l-21 24 -54 -28 c-29 -16 -52 -32 -49 -36 9
-14 -24 -45 -49 -45 -13 -1 -22 3 -19 8 3 5 -14 -1 -37 -13 l-42 -21 -103 102
c-57 56 -109 105 -115 109 -8 5 -9 16 -5 30 7 22 8 22 18 4 18 -34 51 -66 92
-87 32 -16 59 -21 130 -21 117 -1 183 22 245 85 49 50 60 56 60 34z m445 5
c-3 -5 -12 -10 -18 -10 -7 0 -6 4 3 10 19 12 23 12 15 0z m-1262 -7 c-7 -2
-19 -2 -25 0 -7 3 -2 5 12 5 14 0 19 -2 13 -5z m54 1 c-3 -3 -12 -4 -19 -1 -8
3 -5 6 6 6 11 1 17 -2 13 -5z m88 -14 c3 -6 -1 -7 -9 -4 -18 7 -21 14 -7 14 6
0 13 -4 16 -10z m1092 -15 c-7 -7 -13 -9 -15 -5 -2 5 -11 6 -20 3 -13 -4 -12
-2 3 10 24 18 51 12 32 -8z m143 3 c-13 -5 -28 -7 -34 -4 -6 2 -3 5 7 5 10 1
16 5 13 10 -4 5 4 7 16 3 l22 -5 -24 -9z m-1582 -19 c-1 -20 -4 -26 -9 -17
-12 18 -11 48 0 48 5 0 9 -14 9 -31z m1250 24 c-10 -2 -26 -2 -35 0 -10 3 -2
5 17 5 19 0 27 -2 18 -5z m-917 -20 c7 -7 9 -25 5 -48 -9 -46 -35 -57 -146
-59 -107 -1 -160 21 -174 72 -7 26 -6 36 5 43 20 14 295 7 310 -8z m299 -23
c8 -5 11 -10 5 -10 -5 0 -17 5 -25 10 -8 5 -10 10 -5 10 6 0 17 -5 25 -10z
m106 -13 c3 -2 -14 -4 -36 -4 -22 0 -43 4 -46 8 -5 9 73 5 82 -4z m57 -4 c-7
-2 -21 -2 -30 0 -10 3 -4 5 12 5 17 0 24 -2 18 -5z m155 -89 c12 -8 22 -20 22
-26 0 -6 -10 -2 -23 10 -31 29 -44 16 -15 -15 24 -26 6 -33 -20 -7 -10 11 -17
13 -20 5 -2 -6 4 -18 13 -27 23 -23 9 -31 -15 -9 -26 24 -25 42 3 66 27 23 27
23 55 3z m681 -30 c-24 -25 -53 -50 -64 -55 -11 -6 5 15 37 45 68 67 89 75 27
10z m-1044 -19 c20 -20 35 -38 33 -40 -2 -3 -22 13 -43 35 -48 50 -41 53 10 5z
m305 -58 c0 -6 -11 0 -25 13 -14 13 -25 28 -25 33 0 6 11 0 25 -13 14 -13 25
-28 25 -33z"/>
<path d="M2575 4385 c-36 -18 -38 -20 -16 -23 14 -2 32 4 44 17 29 28 19 30
-28 6z"/>
<path d="M2625 4349 c-33 -16 -69 -29 -80 -29 -11 0 -27 -5 -35 -11 -26 -18
80 1 127 23 39 18 76 49 57 47 -5 0 -36 -14 -69 -30z"/>
<path d="M2705 4190 c3 -5 8 -10 11 -10 2 0 4 5 4 10 0 6 -5 10 -11 10 -5 0
-7 -4 -4 -10z"/>
<path d="M2810 3327 c-8 -7 -16 -20 -18 -30 -3 -17 -2 -17 30 -1 43 22 43 21
21 32 -12 7 -23 7 -33 -1z"/>
<path d="M3190 3950 c0 -11 7 -20 15 -20 8 0 15 5 15 11 0 5 -4 7 -10 4 -6 -3
-7 1 -4 9 3 9 1 16 -5 16 -6 0 -11 -9 -11 -20z"/>
<path d="M1721 3738 c-31 -11 -28 -61 5 -87 98 -77 208 -26 122 56 -34 32 -89
46 -127 31z"/>
<path d="M2047 2162 c-10 -10 -17 -26 -17 -35 0 -19 26 -47 45 -47 20 0 45 28
45 50 0 21 -25 50 -44 50 -7 0 -20 -8 -29 -18z m51 -4 c17 -17 15 -43 -4 -59
-31 -26 -70 25 -44 56 15 18 32 19 48 3z"/>
<path d="M2060 1450 c-10 -18 -9 -21 7 -18 15 2 18 -4 19 -34 1 -20 -2 -37 -5
-36 -3 0 -21 0 -38 -1 -44 -1 -46 -31 -3 -31 44 0 82 41 78 83 -2 19 -8 31
-15 30 -7 -2 -12 2 -10 8 4 21 -22 20 -33 -1z"/>
<path d="M2388 1453 c11 -18 88 -42 142 -43 46 0 29 12 -53 38 -83 27 -101 28
-89 5z"/>
<path d="M2336 1401 c-15 -27 -14 -29 4 -24 13 3 20 14 20 29 0 32 -6 30 -24
-5z"/>
<path d="M2036 1405 c-3 -8 -1 -15 4 -15 6 0 10 7 10 15 0 8 -2 15 -4 15 -2 0
-6 -7 -10 -15z"/>
<path d="M2400 1410 c0 -5 12 -10 28 -10 21 0 24 2 12 10 -20 13 -40 13 -40 0z"/>
<path d="M2452 1365 l-34 -15 6 -87 c6 -94 4 -94 -29 7 -21 62 -23 65 -57 68
-32 3 -35 1 -46 -36 -22 -74 -18 -88 41 -116 29 -14 84 -33 122 -41 69 -14 70
-14 87 8 25 32 67 122 74 156 6 27 2 31 -35 50 -47 24 -83 26 -129 6z"/>
<path d="M2137 1289 c-3 -13 -1 -19 6 -16 15 5 22 37 9 37 -5 0 -12 -9 -15
-21z"/>
<path d="M1159 1280 c-13 -10 -19 -19 -13 -20 6 0 19 9 29 20 23 26 14 26 -16
0z"/>
<path d="M500 1401 c-197 -110 -193 -108 -168 -115 13 -3 47 -6 76 -6 48 0 52
2 52 24 0 17 9 27 29 36 16 6 32 18 35 26 3 8 17 14 31 14 19 0 25 5 25 23 0
13 5 28 12 35 23 23 -8 11 -92 -37z"/>
<path d="M626 1442 c-3 -6 1 -15 8 -21 8 -7 17 -8 20 -3 3 6 -1 15 -8 21 -8 7
-17 8 -20 3z"/>
<path d="M600 1410 c0 -5 5 -10 10 -10 6 0 10 5 10 10 0 6 -4 10 -10 10 -5 0
-10 -4 -10 -10z"/>
<path d="M504 1298 c0 -20 11 -24 22 -7 5 8 8 8 13 0 4 -6 64 -13 152 -17
l144 -6 -28 26 c-27 27 -28 27 -165 25 -126 -2 -138 -4 -138 -21z"/>
<path d="M481 1294 c0 -11 3 -14 6 -6 3 7 2 16 -1 19 -3 4 -6 -2 -5 -13z"/>
<path d="M1391 147 c2 -1 13 -9 24 -17 19 -14 19 -14 6 3 -7 9 -18 17 -24 17
-6 0 -8 -1 -6 -3z"/>
<path d="M1460 97 c0 -8 105 -87 115 -87 4 0 -3 8 -16 18 -75 57 -99 74 -99
69z"/>
</g>
</svg>
